<svg xmlns="http://www.w3.org/2000/svg" width="22.409" height="20.999" viewBox="0 0 22.409 20.999">
  <path id="_-music_icon" data-name="-music icon" d="M136.2,95.2a.7.7,0,0,0-.7-.7.686.686,0,0,0-.293.069L123.6,97.3a.7.7,0,0,0-.7.7v9.8a6.069,6.069,0,0,0-5.943.167c-2.662,1.416-3.885,4.054-2.733,5.893s4.245,2.182,6.906.767a6.359,6.359,0,0,0,3.17-4.028V98.535l10.5-2.471V105a6.069,6.069,0,0,0-5.943.167c-2.662,1.416-3.885,4.054-2.733,5.893s4.365,2.271,7.038.876A5.33,5.33,0,0,0,136.2,107.8Zm-1.884,11.02c-1.11-.99-2.965-.947-5,.124s-2.9,2.921-1.934,4.133,3.416,1.375,5.42.255C134.487,109.793,135.51,107.285,134.316,106.22Zm-11.9,2.767c-1.2-.888-2.985-.929-5.016.16s-2.888,2.955-1.913,4.165,3.289,1.188,5.315.088c1.723-.937,2.928-3.439,1.612-4.413Z" transform="translate(-113.791 -94.5)" fill-rule="evenodd"/>
</svg>
