<svg xmlns="http://www.w3.org/2000/svg" width="18.203" height="20.99" viewBox="0 0 18.203 20.99">
  <path id="_-playlist_icon" data-name="-playlist icon" d="M310.087,109.264a6.11,6.11,0,0,1-3.348,5.188c-2.823,1.63-6.1,1.344-7.323-.882-1.177-2.143.075-5.154,2.9-6.783,2.278-1.316,4.836-1.291,6.387-.127V95.2a.7.7,0,0,1,1.4,0v14C310.1,109.223,310.089,109.242,310.087,109.264Zm-1.622-1.084c-.978-1.5-3.657-1.549-5.741-.292s-3.085,3.649-2.106,5.146,3.564,1.534,5.648.277S309.443,109.677,308.465,108.18ZM305.2,100.8H292.6a.7.7,0,1,1,0-1.4h12.6a.7.7,0,1,1,0,1.4Zm0-4.2H292.6a.7.7,0,1,1,0-1.4h12.6a.7.7,0,1,1,0,1.4Zm-12.6,7h7.7a.7.7,0,1,1,0,1.4h-7.7a.7.7,0,1,1,0-1.4Zm0,4.2h4.2a.7.7,0,1,1,0,1.4h-4.2a.7.7,0,1,1,0-1.4Z" transform="translate(-291.9 -94.5)" fill-rule="evenodd"/>
</svg>
