<svg xmlns="http://www.w3.org/2000/svg" width="23" height="23" viewBox="0 0 23 23">
  <path id="Forma_1" data-name="Forma 1" d="M459.5,116A11.5,11.5,0,1,0,448,104.5,11.5,11.5,0,0,0,459.5,116Zm0-21.989A10.486,10.486,0,1,1,449.014,104.5,10.486,10.486,0,0,1,459.5,94.011Zm-6.249,10.23a7.947,7.947,0,0,0-.1,1.283.407.407,0,0,0,.814,0,7.126,7.126,0,0,1,7.131-7.131.407.407,0,0,0,0-.814,7.91,7.91,0,0,0-7.846,6.665Zm7.435-7.355a.407.407,0,1,0,0-.814,9.464,9.464,0,0,0-9.453,9.452.408.408,0,0,0,.815,0,8.648,8.648,0,0,1,8.637-8.635Zm-2.513,14.425a.407.407,0,0,0,.407.408,7.938,7.938,0,0,0,7.946-7.945.408.408,0,0,0-.815,0,7.266,7.266,0,0,1-.092,1.151,7.1,7.1,0,0,1-7.038,5.979.407.407,0,0,0-.409.41Zm.815,1.1a.408.408,0,1,0,0,.815,9.464,9.464,0,0,0,9.453-9.453.407.407,0,1,0-.814,0,8.649,8.649,0,0,1-8.64,8.641Zm-1.167-7.839a1.683,1.683,0,1,1,0,.007h0Zm1.679,1.17a1.17,1.17,0,1,1,1.17-1.17,1.17,1.17,0,0,1-1.17,1.17Zm-3.026-1.17a3.026,3.026,0,1,0,3.026-3.025,3.026,3.026,0,0,0-3.026,3.025Zm5.766,0a2.741,2.741,0,1,1-2.74-2.74,2.741,2.741,0,0,1,2.74,2.74Z" transform="translate(-448 -93)" fill-rule="evenodd"/>
</svg>
