<svg xmlns="http://www.w3.org/2000/svg" xmlns:xlink="http://www.w3.org/1999/xlink" width="226" height="179" viewBox="0 0 226 179">
  <defs>
    <clipPath id="clip-path">
      <rect id="Rectangle_12" data-name="Rectangle 12" width="226" height="179" transform="translate(492 79)" fill="#110202"/>
    </clipPath>
  </defs>
  <g id="Mask_Group_1" data-name="Mask Group 1" transform="translate(-492 -79)" clip-path="url(#clip-path)">
    <path id="Forma_1" data-name="Forma 1" d="M754.372,251.628A87.5,87.5,0,1,0,780,313.5a87.5,87.5,0,0,0-25.628-61.872ZM692.5,397.865A84.365,84.365,0,1,1,776.865,313.5,84.365,84.365,0,0,1,692.5,397.865Zm38.057-140.837a1.568,1.568,0,0,0-1.755,2.6,64.961,64.961,0,0,1-36.3,118.83,1.567,1.567,0,0,0,0,3.134,68.1,68.1,0,0,0,38.055-124.564ZM692.5,248.543a65.118,65.118,0,0,1,17.283,2.324,1.54,1.54,0,0,0,.417.057,1.568,1.568,0,0,0,.415-3.079,68.249,68.249,0,0,0-18.115-2.437,1.568,1.568,0,1,0,0,3.135ZM675.381,376.177A65.079,65.079,0,0,1,627.543,313.5a1.567,1.567,0,1,0-3.134,0,68.221,68.221,0,0,0,50.148,65.7,1.568,1.568,0,0,0,.824-3.023Zm1.906-62.677A15.213,15.213,0,1,0,692.5,298.287,15.213,15.213,0,0,0,677.287,313.5Zm27.291,0A12.079,12.079,0,1,1,692.5,301.421,12.079,12.079,0,0,1,704.578,313.5ZM692.5,348.26a34.76,34.76,0,1,0-34.76-34.76,34.76,34.76,0,0,0,34.76,34.76Zm0-66.385A31.625,31.625,0,1,1,660.875,313.5,31.625,31.625,0,0,1,692.5,281.875Zm0,7.7a1.567,1.567,0,1,0,0-3.134A27.091,27.091,0,0,0,665.439,313.5a1.567,1.567,0,0,0,3.134,0A23.955,23.955,0,0,1,692.5,289.573ZM690.933,339a1.567,1.567,0,0,0,1.567,1.567A27.091,27.091,0,0,0,719.561,313.5a1.568,1.568,0,0,0-3.135,0A23.953,23.953,0,0,1,692.5,337.426a1.567,1.567,0,0,0-1.567,1.568Z" transform="translate(-5 -86)" fill-rule="evenodd" opacity="0.03"/>
  </g>
</svg>
